<svg xmlns="http://www.w3.org/2000/svg" width="131" height="21" fill="none" viewBox="0 0 131 21">
    <path fill="#3A4042" d="M10.039 20.077c5.544 0 10.039-4.494 10.039-10.038C20.078 4.494 15.583 0 10.038 0 4.496 0 0 4.494 0 10.039c0 5.544 4.495 10.038 10.039 10.038z"/>
    <path fill="#FFFCEE" d="M18.462 8.875c-2.744 0-3.966 3.191-4.004 3.29-.088.273-.692 2.203-.692 3.746 0 2.916-2.42 4.604-5.354 4.604-2.96 0-5.356-1.713-5.356-4.671 0 0 0-1.634.199-3.085-.472-.534-.542-1.39-.542-1.39s-.198.04-.38.191c-.023.019-.057 0-.054-.028.054-.457.516-1.425 1.432-1.565.16-.648.463-1.333.532-1.463a5.501 5.501 0 0 1 7.022-2.461c1.852 0 2.746-.983 2.746-.983.415 0 .916 1.088.684 1.493-.005.01.007.021.017.015.771-.491 1.206-1.703 1.206-1.703.88.44 1.343 2.419.87 2.892 1.52.234 1.929 1.118 1.674 1.118z"/>
    <path fill="#EAE6DA" d="M8.28 20.512c-2.899-.05-5.225-1.754-5.225-4.668 0 0-.024-.418.045-1.402 3.03-.476 1.54 3.866 5.18 6.07z"/>
    <path fill="#F25A70" d="M18.532 8.798c0 .048-.024.077-.07.077a4.46 4.46 0 0 0-.13.003c-2.435.081-3.514 2.44-3.698 2.89l-.003.007c-.1.205-.155.347-.17.383.082-.364.138-.713.138-1.057a5.477 5.477 0 0 0-.931-3.065 5.528 5.528 0 0 0-2.401-1.993 5.337 5.337 0 0 0 .23-.006c.03 0 .06-.003.09-.004l.134-.01.08-.01c.18-.018.348-.047.505-.082l.083-.02a2.261 2.261 0 0 0 .184-.049l.15-.047c.04-.014.079-.027.115-.042.038-.013.075-.026.11-.042a4.123 4.123 0 0 0 .508-.25 3.017 3.017 0 0 0 .481-.35l.002-.002a.123.123 0 0 1 .16.001c.229.2.822.789.6 1.415l-.004.007c-.002.006 0 .011.004.014.004.003.01.006.014.002a1.716 1.716 0 0 0 .217-.164l.055-.05a1.885 1.885 0 0 0 .133-.133l.023-.025.024-.027.005-.006a.561.561 0 0 0 .036-.044c.007-.008.015-.016.02-.024a4.15 4.15 0 0 0 .065-.081l.035-.048a.029.029 0 0 0 .008-.01l.002-.003.034-.047a.774.774 0 0 0 .038-.055c.006-.006.01-.013.013-.02a.147.147 0 0 0 .012-.018c.01-.013.018-.026.027-.04l.053-.085.003-.003c.018-.028.034-.056.05-.084l.008-.014c.024-.04.046-.08.066-.12l.024-.04.04-.08.032-.061c0-.002 0-.003.002-.004a1.344 1.344 0 0 0 .067-.142l.011-.027.008-.014.024-.057a.12.12 0 0 1 .201-.032c.181.208.511.615.747 1.076l.015.044c.209.64.234 1.323 0 1.601l-.023.026c.095.014.186.031.272.05.036.01.072.018.107.026a3.234 3.234 0 0 1 .151.043c.407.122.7.293.897.46a1.632 1.632 0 0 1 .055.048l.044.044a.635.635 0 0 1 .08.089c.021.023.04.048.055.07a.486.486 0 0 1 .081.184l.002.027z"/>
    <path fill="#828282" d="M3.937 9.951c-1.066 0-1.601 1.088-1.658 1.581-.003.03.03.047.053.029.183-.152.382-.192.382-.192s.147 1.81 1.467 1.81c1.614 0 1.467-3.228-.244-3.228z"/>
    <path fill="#F4F1E4" d="M9.389 18.18c.796.139 2.3.256 2.715-.16.27-.268-.614-1.468-1.443-2.272-.207-.212-.586-.368-.953-.368-.784 0-1.419.634-1.419 1.418 0 .7.434 1.265 1.1 1.382z"/>
    <path fill="#3A4042" d="M17.516 7.43c.184-.736-.192-1.693-1.1-2.738a.605.605 0 0 0-1.015.158 4.642 4.642 0 0 1-.361.676 2.768 2.768 0 0 0-.625-.762.608.608 0 0 0-.805.01c-.197.18-.932.756-2.25.783a5.944 5.944 0 0 0-2.264-.444 5.984 5.984 0 0 0-5.28 3.162 8.843 8.843 0 0 0-.498 1.29c-.919.311-1.446 1.279-1.52 1.91a.518.518 0 0 0 .556.576c.077.264.2.571.393.847a27.309 27.309 0 0 0-.177 2.946c0 1.558.604 2.88 1.746 3.82C5.363 20.524 6.818 21 8.412 21c3.438 0 5.839-2.093 5.839-5.09 0-1.464.581-3.321.665-3.583.086-.222 1.196-2.966 3.546-2.966a.553.553 0 0 0 .554-.516c.037-.488-.516-1.1-1.5-1.415zm-5.44 11.735c-.931.753-2.232 1.168-3.664 1.168-3.574 0-5.174-2.255-5.174-4.489 0-.015.002-1.396.156-2.725.213.148.473.242.787.242.416 0 .762-.184 1-.531.2-.294.311-.692.311-1.123 0-.934-.54-1.926-1.539-1.937.162-.55.394-1.073.451-1.18a5.318 5.318 0 0 1 4.693-2.81c.729 0 1.434.145 2.097.43a5.328 5.328 0 0 1 3.222 4.89c0 .567-.157 1.146-.34 1.817-.23.847-.491 1.808-.491 2.994 0 1.33-.522 2.455-1.51 3.254zm-7.407-7.461c-.98-.858-1.87-.563-2.01-.509a.987.987 0 0 0-.11.035c.176-.456.617-1.097 1.388-1.097.782 0 1.191.792 1.191 1.574 0 .358-.088.683-.247.917a.808.808 0 0 1-.7.373c-.467 0-.823-.266-1.059-.79a2.925 2.925 0 0 1-.207-.709c.253-.058.848-.104 1.515.48a.18.18 0 0 0 .256-.018.182.182 0 0 0-.017-.257zm9.268-6.572a.119.119 0 0 1 .08-.031c.029 0 .057.01.08.03.203.175.688.654.647 1.194-.202.16-.431.265-.684.265a.182.182 0 0 0 0 .364c1.05 0 1.718-1.294 1.945-1.816.382.313.663.982.755 1.55.062.382.04.711-.055.878a5.012 5.012 0 0 0-.688-.047.182.182 0 0 0 0 .364c1.406 0 1.958.52 2.16.82-1.825.131-2.897 1.502-3.397 2.37a5.656 5.656 0 0 0-.962-3.138 5.693 5.693 0 0 0-2.162-1.909c1.302-.102 2.054-.687 2.28-.894z"/>
    <path fill="#3A4042" d="M7.387 12.925a.902.902 0 1 0 0-1.804.902.902 0 0 0 0 1.804zM10.836 18.492c-.68 0-1.351-.11-1.478-.133-.748-.13-1.25-.758-1.25-1.561 0-.882.717-1.6 1.6-1.6.407 0 .832.166 1.083.423.593.574 1.54 1.699 1.544 2.254a.37.37 0 0 1-.102.274c-.267.267-.835.343-1.397.343zM9.42 18c1.024.18 2.26.187 2.556-.108.06-.174-.525-1.125-1.441-2.013-.184-.188-.523-.317-.827-.317-.682 0-1.237.554-1.237 1.236 0 .62.382 1.103.95 1.202zM24.39 10.694c0-4.996 3.71-8.827 8.826-8.827 3.08 0 5.796 1.528 7.275 3.929l-3.346 1.94c-.752-1.31-2.207-2.086-3.929-2.086-3.007 0-4.947 2.013-4.947 5.044 0 3.031 1.94 5.044 4.947 5.044 1.722 0 3.201-.776 3.929-2.085l3.346 1.94c-1.455 2.4-4.17 3.928-7.275 3.928-5.117 0-8.827-3.832-8.827-8.827zM41.703 13.119c0-3.613 2.862-6.402 6.427-6.402 3.564 0 6.426 2.789 6.426 6.402s-2.861 6.402-6.426 6.402-6.427-2.789-6.427-6.402zm9.215 0c0-1.722-1.212-2.861-2.788-2.861-1.576 0-2.789 1.14-2.789 2.861 0 1.722 1.213 2.862 2.789 2.862s2.788-1.14 2.788-2.862zM56.617 1.48h3.637V19.18h-3.637V1.48zM62.922 1.48h3.637V19.18h-3.637V1.48zM81.666 7.057v12.125H78.03v-1.14c-.8.921-1.989 1.479-3.613 1.479-3.177 0-5.796-2.789-5.796-6.402s2.619-6.402 5.796-6.402c1.624 0 2.813.558 3.613 1.48v-1.14h3.638zm-3.637 6.062c0-1.819-1.212-2.958-2.886-2.958-1.673 0-2.885 1.14-2.885 2.958 0 1.819 1.212 2.959 2.885 2.959 1.674 0 2.886-1.14 2.886-2.959zM97.38 13.119c0 3.613-2.62 6.402-5.796 6.402-1.625 0-2.813-.558-3.613-1.48v1.14h-3.638V2.206h3.638v5.99c.8-.921 1.988-1.479 3.613-1.479 3.177 0 5.796 2.789 5.796 6.402zm-3.638 0c0-1.819-1.212-2.958-2.885-2.958-1.674 0-2.886 1.14-2.886 2.958 0 1.819 1.212 2.959 2.886 2.959 1.673 0 2.885-1.14 2.885-2.959zM102.143 18.866l-1.6-1.6V8.73l1.6-1.6h2.328l1.601 1.6v2.061h-.946V9.045l-1.091-1.091h-1.455l-1.092 1.091v7.905l1.092 1.092h1.455l1.091-1.092v-1.746h.946v2.061l-1.601 1.601h-2.328zM109.976 18.866l-1.601-1.6V8.73l1.601-1.6h2.667l1.601 1.6v8.535l-1.601 1.601h-2.667zm.436-.824h1.795l1.091-1.092V9.045l-1.091-1.091h-1.795l-1.091 1.091v7.905l1.091 1.092zM118.269 18.866l-1.601-1.6V8.73l1.601-1.6h1.819l1.527 1.527V2.134h.946v16.732h-.873l-.048-1.552-1.552 1.552h-1.819zm.437-.824h1.091l1.818-1.82v-6.45l-1.818-1.818h-1.091l-1.092 1.091v7.905l1.092 1.092zM126.829 18.866l-1.6-1.6V8.73l1.6-1.6h2.571l1.6 1.6v4.438h-4.826v3.782l1.092 1.092h1.697l1.091-1.092v-1.455H131v1.77l-1.6 1.601h-2.571zm-.655-6.523h3.88V9.045l-1.091-1.091h-1.698l-1.091 1.091v3.298z"/>
</svg>
